<svg width="21" height="20" viewBox="0 0 21 20" fill="none" xmlns="http://www.w3.org/2000/svg">
<path d="M18.85 3.55998L20.64 1.76998C20.7447 1.68033 20.8297 1.57002 20.8897 1.44595C20.9497 1.32189 20.9835 1.18675 20.9888 1.04903C20.9941 0.911315 20.9709 0.773983 20.9206 0.645658C20.8703 0.517333 20.7941 0.400785 20.6966 0.30333C20.5992 0.205876 20.4826 0.129618 20.3543 0.079343C20.226 0.0290684 20.0886 0.0058627 19.9509 0.0111822C19.8132 0.0165017 19.6781 0.0502316 19.554 0.110255C19.4299 0.170278 19.3196 0.255299 19.23 0.35998L17.44 2.14998L15.64 0.35998C15.4487 0.196154 15.2026 0.110548 14.9509 0.120269C14.6993 0.12999 14.4605 0.234323 14.2824 0.412417C14.1043 0.590512 14 0.829251 13.9903 1.08093C13.9805 1.3326 14.0662 1.57868 14.23 1.76998L16 3.55998L14.21 5.35998C14.0237 5.54734 13.9192 5.80079 13.9192 6.06498C13.9192 6.32917 14.0237 6.58262 14.21 6.76998C14.3973 6.95623 14.6508 7.06077 14.915 7.06077C15.1792 7.06077 15.4326 6.95623 15.62 6.76998L17.44 4.99998L19.23 6.78998C19.4173 6.97623 19.6708 7.08077 19.935 7.08077C20.1992 7.08077 20.4526 6.97623 20.64 6.78998C20.8262 6.60262 20.9308 6.34917 20.9308 6.08498C20.9308 5.82079 20.8262 5.56734 20.64 5.37998L18.85 3.55998ZM18.44 11C18.22 11 17.99 10.93 17.77 10.88C17.3245 10.7818 16.8866 10.6515 16.46 10.49C15.9961 10.3212 15.4861 10.33 15.0283 10.5146C14.5704 10.6992 14.1971 11.0466 13.98 11.49L13.76 11.94C12.786 11.3982 11.891 10.7252 11.1 9.93998C10.3147 9.149 9.6418 8.25398 9.09998 7.27998L9.51998 6.99998C9.96334 6.7829 10.3108 6.40951 10.4954 5.95167C10.68 5.49383 10.6888 4.98389 10.52 4.51998C10.3612 4.0924 10.2309 3.65478 10.13 3.20998C10.08 2.98998 10.04 2.75998 10.01 2.52998C9.88854 1.8256 9.5196 1.18772 8.9696 0.73122C8.4196 0.274717 7.72467 0.0295894 7.00998 0.0399805H4.00998C3.57901 0.035934 3.15223 0.124794 2.75869 0.300511C2.36515 0.476228 2.01409 0.734676 1.72941 1.05826C1.44473 1.38185 1.23311 1.76297 1.10897 2.17569C0.98482 2.58842 0.951058 3.02304 1.00998 3.44998C1.54272 7.63936 3.45601 11.5319 6.44763 14.5126C9.43925 17.4934 13.3387 19.3925 17.53 19.91H17.91C18.6474 19.9111 19.3594 19.6405 19.91 19.15C20.2263 18.867 20.4791 18.5202 20.6514 18.1323C20.8238 17.7444 20.9119 17.3244 20.91 16.9V13.9C20.8977 13.2054 20.6448 12.5365 20.1943 12.0076C19.7439 11.4788 19.1238 11.1226 18.44 11ZM18.94 17C18.9398 17.142 18.9094 17.2823 18.8508 17.4116C18.7921 17.5409 18.7066 17.6563 18.6 17.75C18.4882 17.8465 18.3576 17.9185 18.2164 17.9616C18.0752 18.0046 17.9265 18.0177 17.78 18C14.0349 17.5198 10.5562 15.8065 7.89269 13.1303C5.22917 10.4541 3.53239 6.96732 3.06998 3.21998C3.05406 3.0735 3.06801 2.92531 3.11098 2.78437C3.15395 2.64343 3.22505 2.51267 3.31998 2.39998C3.41369 2.29331 3.52904 2.20782 3.65836 2.1492C3.78767 2.09057 3.92799 2.06016 4.06998 2.05998H7.06998C7.30253 2.05481 7.5296 2.13086 7.71212 2.27505C7.89464 2.41924 8.02119 2.62255 8.06998 2.84998C8.10998 3.12331 8.15998 3.39331 8.21998 3.65998C8.3355 4.18712 8.48924 4.70516 8.67998 5.20998L7.27998 5.85998C7.16028 5.9149 7.0526 5.99293 6.96314 6.08958C6.87367 6.18623 6.80418 6.29959 6.75865 6.42318C6.71312 6.54676 6.69245 6.67811 6.69783 6.8097C6.7032 6.94129 6.73452 7.07053 6.78998 7.18998C8.22918 10.2727 10.7072 12.7508 13.79 14.19C14.0334 14.29 14.3065 14.29 14.55 14.19C14.6747 14.1454 14.7893 14.0764 14.8871 13.9872C14.985 13.8979 15.0641 13.7901 15.12 13.67L15.74 12.27C16.2569 12.4549 16.7846 12.6085 17.32 12.73C17.5866 12.79 17.8566 12.84 18.13 12.88C18.3574 12.9288 18.5607 13.0553 18.7049 13.2378C18.8491 13.4204 18.9252 13.6474 18.92 13.88L18.94 17Z" fill="white"/>
</svg>
