<svg width="91" height="89" viewBox="0 0 91 89" fill="none" xmlns="http://www.w3.org/2000/svg">
<path d="M0.480469 71.344C0.480469 71.088 0.664469 70.96 1.03247 70.96C1.08047 70.96 1.16847 70.96 1.29647 70.96C1.42447 70.944 1.63247 70.936 1.92047 70.936C2.00047 70.936 2.21647 70.952 2.56847 70.984C2.93647 71 3.20047 71.008 3.36047 71.008C3.71247 71.008 4.39247 71 5.40047 70.984C6.40847 70.952 7.04847 70.936 7.32047 70.936C8.82447 70.936 10.1205 71.32 11.2085 72.088C12.2965 72.84 12.8405 73.928 12.8405 75.352C12.8405 76.136 12.6965 76.84 12.4085 77.464C12.1205 78.072 11.7685 78.552 11.3525 78.904C10.9525 79.256 10.4965 79.552 9.98447 79.792C9.48847 80.016 9.04047 80.168 8.64047 80.248C8.25647 80.312 7.91247 80.344 7.60847 80.344C7.09647 80.344 6.57647 80.288 6.04847 80.176C5.52047 80.048 5.25647 79.92 5.25647 79.792C5.25647 79.552 5.36047 79.432 5.56847 79.432C5.64847 79.432 5.80847 79.464 6.04847 79.528C6.30447 79.592 6.55247 79.624 6.79247 79.624C7.16047 79.624 7.55247 79.576 7.96847 79.48C8.38447 79.368 8.81647 79.2 9.26447 78.976C9.71247 78.736 10.0805 78.384 10.3685 77.92C10.6565 77.44 10.8005 76.888 10.8005 76.264C10.8005 75.192 10.3685 74.2 9.50447 73.288C8.64047 72.36 7.44847 71.896 5.92847 71.896C5.43247 71.896 5.09647 72.048 4.92047 72.352C4.74447 72.64 4.65647 73.304 4.65647 74.344C4.65647 77.672 4.64847 79.576 4.63247 80.056C4.61647 80.52 4.60847 81.92 4.60847 84.256C4.60847 85.664 4.93647 86.584 5.59247 87.016C5.76847 87.128 5.98447 87.2 6.24047 87.232C6.51247 87.264 6.73647 87.28 6.91247 87.28C7.08847 87.264 7.24047 87.296 7.36847 87.376C7.51247 87.44 7.58447 87.568 7.58447 87.76C7.58447 88.032 7.40047 88.168 7.03247 88.168C6.66447 88.168 6.01647 88.144 5.08847 88.096C4.16047 88.064 3.66447 88.048 3.60047 88.048C3.44047 88.048 3.12047 88.064 2.64047 88.096C2.17647 88.128 1.75247 88.144 1.36847 88.144C0.872469 88.144 0.624469 88.056 0.624469 87.88C0.624469 87.784 0.632469 87.704 0.648469 87.64C0.680469 87.576 0.704469 87.528 0.720469 87.496C0.752469 87.448 0.808469 87.408 0.888469 87.376C0.968469 87.344 1.02447 87.32 1.05647 87.304C1.08847 87.288 1.16047 87.272 1.27247 87.256C1.40047 87.224 1.48847 87.2 1.53647 87.184C1.56847 87.168 1.61647 87.16 1.68047 87.16C1.74447 87.144 1.78447 87.136 1.80047 87.136C1.83247 87.12 1.87247 87.096 1.92047 87.064C1.98447 87.016 2.03247 86.96 2.06447 86.896C2.09647 86.816 2.13647 86.72 2.18447 86.608C2.24847 86.48 2.31247 86.32 2.37647 86.128C2.48847 85.824 2.57647 84.624 2.64047 82.528C2.70447 80.432 2.73647 78.808 2.73647 77.656C2.73647 76.664 2.72847 75.752 2.71247 74.92C2.71247 74.072 2.71247 73.624 2.71247 73.576C2.71247 73.144 2.57647 72.72 2.30447 72.304C2.03247 71.872 1.58447 71.656 0.960469 71.656C0.640469 71.656 0.480469 71.552 0.480469 71.344Z" fill="black"/>
<path d="M14.3712 85.96C14.3712 85.384 14.4912 84.904 14.7312 84.52C14.9712 84.12 15.3312 83.816 15.8112 83.608C16.3072 83.384 16.8192 83.208 17.3472 83.08C17.8752 82.952 18.5152 82.824 19.2672 82.696C19.3632 82.68 19.4352 82.672 19.4832 82.672C19.5312 82.656 19.5952 82.648 19.6752 82.648C19.7552 82.632 19.8272 82.616 19.8912 82.6C20.0032 82.584 20.0752 82.568 20.1072 82.552C20.1552 82.536 20.1952 82.504 20.2272 82.456C20.2752 82.392 20.2992 82.312 20.2992 82.216C20.2992 82.056 20.3072 81.84 20.3232 81.568C20.3392 81.28 20.3472 81.08 20.3472 80.968C20.3472 80.056 20.0832 79.4 19.5552 79C19.0272 78.584 18.5152 78.376 18.0192 78.376C16.8672 78.376 16.2912 78.856 16.2912 79.816C16.2912 79.944 16.3072 80.104 16.3392 80.296C16.3712 80.488 16.3872 80.616 16.3872 80.68C16.3872 81 16.2432 81.16 15.9552 81.16C15.8592 81.16 15.7392 81.152 15.5952 81.136C15.4512 81.104 15.2832 81.064 15.0912 81.016C14.9152 80.952 14.7632 80.856 14.6352 80.728C14.5232 80.584 14.4672 80.416 14.4672 80.224C14.4672 79.6 14.8832 79.008 15.7152 78.448C16.5632 77.872 17.4912 77.584 18.4992 77.584C19.1872 77.584 19.7712 77.664 20.2512 77.824C20.7312 77.984 21.0832 78.168 21.3072 78.376C21.5472 78.568 21.7312 78.832 21.8592 79.168C21.9872 79.488 22.0592 79.744 22.0752 79.936C22.0912 80.112 22.0992 80.336 22.0992 80.608C22.0992 81.76 22.0752 82.672 22.0272 83.344C21.9952 84 21.9792 84.576 21.9792 85.072C21.9792 85.664 22.0432 86.136 22.1712 86.488C22.2992 86.824 22.4512 87.04 22.6272 87.136C22.8032 87.232 22.9792 87.288 23.1552 87.304C23.3312 87.32 23.4832 87.352 23.6112 87.4C23.7392 87.448 23.8032 87.544 23.8032 87.688C23.8032 88.024 23.2992 88.192 22.2912 88.192C21.8752 88.192 21.5152 88.08 21.2112 87.856C20.9232 87.632 20.7152 87.416 20.5872 87.208C20.4592 86.984 20.3872 86.872 20.3712 86.872C20.3552 86.872 20.2912 86.928 20.1792 87.04C20.0672 87.136 19.9072 87.256 19.6992 87.4C19.5072 87.544 19.2832 87.688 19.0272 87.832C18.7872 87.976 18.4992 88.096 18.1632 88.192C17.8432 88.304 17.5232 88.36 17.2032 88.36C16.1792 88.36 15.4352 88.12 14.9712 87.64C14.5712 87.24 14.3712 86.68 14.3712 85.96ZM16.2432 85.6C16.2432 86.144 16.4032 86.584 16.7232 86.92C17.0432 87.24 17.4992 87.4 18.0912 87.4C18.5072 87.4 18.8592 87.336 19.1472 87.208C19.4512 87.08 19.6752 86.936 19.8192 86.776C19.9632 86.616 20.0752 86.408 20.1552 86.152C20.2352 85.88 20.2752 85.672 20.2752 85.528C20.2912 85.384 20.2992 85.192 20.2992 84.952V83.224C20.2992 83.08 20.2432 83.008 20.1312 83.008C20.0992 83.008 20.0592 83.016 20.0112 83.032C19.9632 83.048 19.9232 83.056 19.8912 83.056C19.5232 83.12 19.2912 83.16 19.1952 83.176C19.0992 83.192 18.8752 83.24 18.5232 83.32C18.1712 83.4 17.9232 83.472 17.7792 83.536C17.6512 83.6 17.4592 83.704 17.2032 83.848C16.9632 83.976 16.7872 84.12 16.6752 84.28C16.5792 84.424 16.4832 84.616 16.3872 84.856C16.2912 85.08 16.2432 85.328 16.2432 85.6Z" fill="black"/>
<path d="M24.4816 78.88C24.4816 78.704 24.5856 78.576 24.7936 78.496C25.0176 78.4 25.4176 78.264 25.9936 78.088C26.5856 77.896 27.1376 77.68 27.6496 77.44C27.8096 77.376 27.9216 77.344 27.9856 77.344C28.1936 77.344 28.2976 77.504 28.2976 77.824C28.2976 77.888 28.2896 77.992 28.2736 78.136C28.2736 78.28 28.2736 78.392 28.2736 78.472C28.2736 78.808 28.2816 79.048 28.2976 79.192C28.3136 79.336 28.3296 79.424 28.3456 79.456C28.3776 79.488 28.4176 79.504 28.4656 79.504C28.4976 79.504 28.6176 79.344 28.8256 79.024C29.0336 78.704 29.3296 78.384 29.7136 78.064C30.0976 77.728 30.5216 77.56 30.9856 77.56C31.2736 77.56 31.6496 77.712 32.1136 78.016C32.4496 78.24 32.6176 78.472 32.6176 78.712C32.6176 79 32.5536 79.256 32.4256 79.48C32.2976 79.704 32.1696 79.856 32.0416 79.936C31.9296 80.016 31.8496 80.056 31.8016 80.056C31.6736 80.056 31.4416 79.96 31.1056 79.768C30.7856 79.576 30.4096 79.48 29.9776 79.48C29.5456 79.48 29.1376 79.656 28.7536 80.008C28.3856 80.36 28.2016 80.68 28.2016 80.968V83.464C28.2016 84.04 28.2016 84.512 28.2016 84.88C28.2176 85.232 28.2256 85.456 28.2256 85.552C28.2256 85.632 28.2256 85.704 28.2256 85.768C28.2416 85.832 28.2496 85.904 28.2496 85.984C28.2496 86.32 28.3616 86.608 28.5856 86.848C28.8096 87.088 29.0736 87.232 29.3776 87.28C29.4736 87.296 29.5936 87.312 29.7376 87.328C29.8816 87.344 29.9936 87.36 30.0736 87.376C30.1536 87.376 30.2416 87.392 30.3376 87.424C30.4336 87.44 30.4976 87.472 30.5296 87.52C30.5776 87.568 30.6016 87.624 30.6016 87.688C30.6016 87.944 30.5056 88.072 30.3136 88.072C30.0416 88.072 29.6736 88.048 29.2096 88C28.7456 87.968 28.4336 87.952 28.2736 87.952C27.7616 87.952 27.2336 87.968 26.6896 88C26.1456 88.048 25.8416 88.072 25.7776 88.072C25.6176 88.072 25.4976 88.056 25.4176 88.024C25.3376 87.992 25.2896 87.96 25.2736 87.928C25.2576 87.896 25.2496 87.848 25.2496 87.784C25.2496 87.576 25.3536 87.44 25.5616 87.376C25.9776 87.28 26.2256 87.08 26.3056 86.776C26.4016 86.456 26.4496 85.784 26.4496 84.76C26.4496 83.72 26.4416 82.864 26.4256 82.192C26.4256 81.52 26.4256 81.096 26.4256 80.92C26.4256 80.728 26.4176 80.576 26.4016 80.464C26.4016 80.352 26.4016 80.256 26.4016 80.176C26.4016 80 26.3776 79.856 26.3296 79.744C26.2816 79.632 26.1616 79.528 25.9696 79.432C25.7936 79.336 25.5376 79.288 25.2016 79.288C25.1856 79.288 25.1456 79.288 25.0816 79.288C25.0176 79.272 24.9696 79.264 24.9376 79.264C24.6336 79.264 24.4816 79.136 24.4816 78.88Z" fill="black"/>
<path d="M33.8176 78.856C33.8176 78.776 33.8336 78.712 33.8656 78.664C33.9136 78.616 33.9936 78.568 34.1056 78.52C34.2336 78.456 34.3616 78.408 34.4896 78.376C34.6176 78.328 34.8016 78.264 35.0416 78.184C35.2976 78.088 35.5376 77.992 35.7616 77.896C35.9376 77.816 36.0976 77.744 36.2416 77.68C36.4016 77.616 36.5056 77.576 36.5536 77.56C36.6016 77.528 36.6576 77.504 36.7216 77.488C36.7856 77.472 36.8656 77.464 36.9616 77.464C37.2016 77.464 37.3216 77.616 37.3216 77.92C37.3216 78 37.2976 78.176 37.2496 78.448C37.2016 78.72 37.1776 78.928 37.1776 79.072V85.648C37.1776 86.128 37.2496 86.504 37.3936 86.776C37.5536 87.048 37.7136 87.216 37.8736 87.28C38.0496 87.344 38.2656 87.384 38.5216 87.4C38.7136 87.416 38.8416 87.432 38.9056 87.448C38.9696 87.448 39.0416 87.472 39.1216 87.52C39.2016 87.568 39.2416 87.648 39.2416 87.76C39.2416 88.032 39.1056 88.168 38.8336 88.168C38.8016 88.168 38.7456 88.16 38.6656 88.144C38.5856 88.144 38.5216 88.144 38.4736 88.144C38.1216 88.144 37.8256 88.136 37.5856 88.12C37.3456 88.104 37.0736 88.096 36.7696 88.096C36.3856 88.096 36.0256 88.104 35.6896 88.12C35.3536 88.136 35.1456 88.144 35.0656 88.144C34.4256 88.144 34.1056 88.04 34.1056 87.832C34.1056 87.608 34.2256 87.456 34.4656 87.376C34.4816 87.376 34.5136 87.368 34.5616 87.352C34.9296 87.224 35.1536 87.064 35.2336 86.872C35.3776 86.552 35.4496 85.28 35.4496 83.056V80.944C35.4496 80.48 35.3936 80.112 35.2816 79.84C35.1696 79.568 35.0656 79.4 34.9696 79.336C34.8736 79.272 34.7056 79.224 34.4656 79.192C34.2416 79.144 34.1056 79.112 34.0576 79.096C33.8976 79.032 33.8176 78.952 33.8176 78.856ZM35.1856 73.84C35.1856 73.648 35.3216 73.384 35.5936 73.048C35.8816 72.696 36.1456 72.52 36.3856 72.52C36.6416 72.52 36.8896 72.688 37.1296 73.024C37.3696 73.344 37.4896 73.632 37.4896 73.888C37.4896 74.144 37.3376 74.432 37.0336 74.752C36.7296 75.056 36.5056 75.208 36.3616 75.208C36.0416 75.208 35.7616 75.04 35.5216 74.704C35.2976 74.368 35.1856 74.08 35.1856 73.84Z" fill="black"/>
<path d="M40.2539 71.728C39.9339 71.728 39.7739 71.64 39.7739 71.464C39.7739 71.288 40.1659 71.08 40.9499 70.84C41.0619 70.808 41.1899 70.768 41.3339 70.72C41.4939 70.672 41.5899 70.648 41.6219 70.648C41.6539 70.632 41.7099 70.608 41.7899 70.576C41.8859 70.544 41.9339 70.528 41.9339 70.528C41.9499 70.512 41.9899 70.488 42.0539 70.456C42.1339 70.424 42.1899 70.4 42.2219 70.384C42.2539 70.352 42.3179 70.312 42.4139 70.264C42.5099 70.2 42.6059 70.136 42.7019 70.072C43.0379 69.864 43.3019 69.76 43.4939 69.76C43.7179 69.76 43.8299 69.912 43.8299 70.216C43.8299 70.248 43.8219 70.344 43.8059 70.504C43.7899 70.648 43.7659 70.872 43.7339 71.176C43.7179 71.464 43.7019 71.824 43.6859 72.256C43.6699 72.672 43.6539 73.24 43.6379 73.96C43.6219 74.664 43.6139 75.44 43.6139 76.288C43.6139 76.832 43.5979 77.656 43.5659 78.76C43.5499 79.848 43.5419 80.664 43.5419 81.208V81.712C43.5419 82.384 43.5739 82.72 43.6379 82.72C43.7339 82.72 43.8139 82.696 43.8779 82.648C43.9579 82.6 44.0459 82.52 44.1419 82.408C44.2539 82.296 44.3419 82.216 44.4059 82.168C46.6459 80.376 47.7659 79.36 47.7659 79.12C47.7659 78.912 47.5819 78.736 47.2139 78.592C46.8619 78.448 46.6859 78.312 46.6859 78.184C46.6859 78.024 46.7819 77.944 46.9739 77.944C47.0059 77.944 47.0699 77.952 47.1659 77.968C47.2619 77.968 47.3419 77.968 47.4059 77.968C48.1099 77.952 48.8299 77.928 49.5659 77.896C50.3179 77.864 50.7739 77.848 50.9339 77.848C51.3499 77.848 51.5579 77.92 51.5579 78.064C51.5579 78.176 51.5099 78.256 51.4139 78.304C51.3179 78.352 51.1899 78.392 51.0299 78.424C50.8699 78.44 50.6379 78.504 50.3339 78.616C50.0299 78.728 49.7179 78.888 49.3979 79.096C49.3499 79.128 49.3019 79.16 49.2539 79.192C49.2059 79.224 49.1499 79.264 49.0859 79.312C49.0379 79.36 48.9339 79.44 48.7739 79.552C48.6299 79.664 48.4619 79.792 48.2699 79.936C48.0459 80.112 47.7499 80.336 47.3819 80.608C46.6299 81.184 46.1899 81.528 46.0619 81.64C45.9339 81.752 45.8699 81.872 45.8699 82C45.8699 82.128 45.9579 82.312 46.1339 82.552C47.5899 84.328 48.8379 85.672 49.8779 86.584C50.3099 86.968 50.7419 87.216 51.1739 87.328C51.6219 87.44 51.9419 87.496 52.1339 87.496C52.3259 87.496 52.4219 87.568 52.4219 87.712C52.4219 87.904 52.3499 88.016 52.2059 88.048C52.0779 88.096 51.8219 88.12 51.4379 88.12C51.3259 88.12 50.9019 88.112 50.1659 88.096C49.4299 88.096 49.0219 88.096 48.9419 88.096C48.8139 88.096 48.6059 87.976 48.3179 87.736C48.0299 87.48 47.6779 87.128 47.2619 86.68C46.8619 86.216 46.5179 85.816 46.2299 85.48C45.9419 85.128 45.5899 84.696 45.1739 84.184C44.7579 83.672 44.5419 83.4 44.5259 83.368C44.4619 83.272 44.3739 83.224 44.2619 83.224C44.1019 83.224 43.9339 83.336 43.7579 83.56C43.5979 83.784 43.5179 84.04 43.5179 84.328C43.5179 84.36 43.5179 84.424 43.5179 84.52C43.5339 84.6 43.5419 84.672 43.5419 84.736C43.5419 84.912 43.5499 85.136 43.5659 85.408C43.5979 86.176 43.6539 86.608 43.7339 86.704C43.7499 86.72 43.7739 86.752 43.8059 86.8C43.8699 86.88 43.9259 86.952 43.9739 87.016C44.1019 87.192 44.4299 87.328 44.9579 87.424C45.5019 87.52 45.7739 87.64 45.7739 87.784C45.7739 88.04 45.5259 88.168 45.0299 88.168C44.9979 88.168 44.6779 88.144 44.0699 88.096C43.4619 88.048 43.0059 88.024 42.7019 88.024C42.4939 88.024 42.2379 88.04 41.9339 88.072C41.6459 88.104 41.3179 88.12 40.9499 88.12C40.5659 88.12 40.3739 88.024 40.3739 87.832C40.3739 87.672 40.5739 87.536 40.9739 87.424C41.3419 87.28 41.5739 87.072 41.6699 86.8C41.7659 86.528 41.8139 86 41.8139 85.216C41.8139 85.04 41.8139 84.832 41.8139 84.592C41.8299 84.352 41.8379 84.208 41.8379 84.16L41.8619 73.504C41.8619 72.304 41.4859 71.704 40.7339 71.704C40.6859 71.704 40.6059 71.712 40.4939 71.728C40.3979 71.728 40.3179 71.728 40.2539 71.728Z" fill="black"/>
<path d="M54.172 86.968V84.88C54.172 84.704 54.204 84.56 54.268 84.448C54.348 84.32 54.436 84.256 54.532 84.256C54.692 84.256 54.796 84.296 54.844 84.376C54.908 84.44 54.964 84.584 55.012 84.808C55.06 85.032 55.108 85.192 55.156 85.288C55.748 86.76 56.58 87.496 57.652 87.496C58.148 87.496 58.62 87.368 59.068 87.112C59.516 86.84 59.74 86.4 59.74 85.792C59.74 85.264 59.556 84.824 59.188 84.472C58.82 84.12 58.372 83.848 57.844 83.656C57.316 83.448 56.788 83.24 56.26 83.032C55.732 82.808 55.284 82.488 54.916 82.072C54.548 81.64 54.364 81.104 54.364 80.464C54.364 79.568 54.724 78.848 55.444 78.304C56.164 77.76 57.012 77.488 57.988 77.488C58.74 77.488 59.34 77.56 59.788 77.704C60.236 77.832 60.5 77.952 60.58 78.064C60.676 78.176 60.724 78.28 60.724 78.376C60.724 78.392 60.74 78.608 60.772 79.024C60.804 79.44 60.82 79.704 60.82 79.816C60.82 80.088 60.788 80.272 60.724 80.368C60.66 80.464 60.548 80.512 60.388 80.512C60.308 80.512 60.196 80.4 60.052 80.176C59.924 79.936 59.772 79.68 59.596 79.408C59.436 79.136 59.164 78.888 58.78 78.664C58.412 78.424 57.98 78.304 57.484 78.304C57.02 78.304 56.636 78.424 56.332 78.664C56.028 78.888 55.876 79.176 55.876 79.528C55.876 79.72 55.9 79.904 55.948 80.08C55.996 80.24 56.076 80.384 56.188 80.512C56.316 80.64 56.42 80.752 56.5 80.848C56.596 80.928 56.748 81.016 56.956 81.112C57.164 81.208 57.316 81.28 57.412 81.328C57.524 81.36 57.7 81.424 57.94 81.52C58.196 81.6 58.364 81.656 58.444 81.688C59.596 82.12 60.372 82.576 60.772 83.056C61.172 83.52 61.372 84.216 61.372 85.144C61.372 86.04 60.948 86.872 60.1 87.64C59.524 88.136 58.732 88.384 57.724 88.384C57.436 88.384 57.132 88.352 56.812 88.288C56.492 88.224 56.236 88.16 56.044 88.096C55.868 88.048 55.66 87.976 55.42 87.88C55.18 87.784 55.052 87.736 55.036 87.736C54.972 87.72 54.892 87.696 54.796 87.664C54.716 87.632 54.652 87.616 54.604 87.616C54.572 87.6 54.524 87.576 54.46 87.544C54.396 87.512 54.348 87.488 54.316 87.472C54.3 87.44 54.276 87.4 54.244 87.352C54.212 87.304 54.188 87.248 54.172 87.184C54.172 87.12 54.172 87.048 54.172 86.968Z" fill="black"/>
<path d="M62.7539 71.272C62.7539 71.144 62.8339 71.04 62.9939 70.96C63.1699 70.864 63.4099 70.776 63.7139 70.696C64.0339 70.616 64.2659 70.544 64.4099 70.48C65.4179 70.032 65.9939 69.808 66.1379 69.808C66.3459 69.808 66.4499 69.992 66.4499 70.36C66.4499 70.44 66.4179 70.632 66.3539 70.936C66.3059 71.24 66.2819 71.544 66.2819 71.848C66.2659 73.288 66.2419 74.512 66.2099 75.52C66.1939 76.512 66.1779 77.184 66.1619 77.536C66.1459 77.872 66.1299 78.152 66.1139 78.376C66.1139 78.6 66.1139 78.776 66.1139 78.904C66.1139 79.208 66.1779 79.36 66.3059 79.36C66.3379 79.36 66.4979 79.216 66.7859 78.928C67.0899 78.624 67.4979 78.328 68.0099 78.04C68.5379 77.736 69.0979 77.584 69.6899 77.584C70.9859 77.584 71.9939 77.968 72.7139 78.736C73.4339 79.504 73.7939 80.696 73.7939 82.312V85.792C73.7939 85.952 73.8099 86.128 73.8419 86.32C73.8739 86.496 73.9539 86.68 74.0819 86.872C74.2099 87.064 74.3779 87.168 74.5859 87.184C75.4499 87.264 75.8819 87.432 75.8819 87.688C75.8819 87.944 75.6339 88.072 75.1379 88.072C75.0579 88.072 74.7459 88.048 74.2019 88C73.6739 87.968 73.3139 87.952 73.1219 87.952C72.9779 87.952 72.6419 87.968 72.1139 88C71.6019 88.016 71.3219 88.024 71.2739 88.024C70.9059 88.024 70.7219 87.944 70.7219 87.784C70.7219 87.608 70.7859 87.496 70.9139 87.448C71.0579 87.384 71.2099 87.352 71.3699 87.352C71.5299 87.352 71.6739 87.264 71.8019 87.088C71.9459 86.912 72.0179 86.64 72.0179 86.272C72.0179 86.208 72.0179 86.128 72.0179 86.032C72.0339 85.936 72.0419 85.808 72.0419 85.648C72.0419 85.472 72.0419 85.096 72.0419 84.52C72.0579 83.944 72.0659 83.2 72.0659 82.288C72.0659 81.312 71.7699 80.472 71.1779 79.768C70.5859 79.048 69.8899 78.688 69.0899 78.688C68.3379 78.688 67.5619 79 66.7619 79.624C66.4739 79.848 66.2899 80.216 66.2099 80.728C66.1299 81.224 66.0899 82.336 66.0899 84.064V84.616C66.0899 85.336 66.1459 85.92 66.2579 86.368C66.3859 86.8 66.6499 87.104 67.0499 87.28C67.1779 87.328 67.3539 87.36 67.5779 87.376C67.8019 87.392 67.9699 87.424 68.0819 87.472C68.2099 87.504 68.2739 87.584 68.2739 87.712C68.2739 87.904 68.1859 88 68.0099 88L67.3859 87.976C66.9699 87.96 66.5459 87.944 66.1139 87.928C65.6979 87.896 65.4739 87.88 65.4419 87.88C65.3299 87.88 65.0499 87.904 64.6019 87.952C64.1539 87.984 63.8659 88 63.7379 88C63.5299 88 63.3699 87.992 63.2579 87.976C63.1619 87.944 63.1059 87.92 63.0899 87.904C63.0899 87.872 63.0899 87.824 63.0899 87.76C63.0899 87.6 63.1859 87.496 63.3779 87.448C63.8419 87.32 64.1379 87.12 64.2659 86.848C64.4099 86.56 64.4819 86.144 64.4819 85.6L64.5779 77.416V76.24C64.5779 73.824 64.5139 72.424 64.3859 72.04C64.2739 71.704 64.0019 71.536 63.5699 71.536C63.4259 71.536 63.3219 71.536 63.2579 71.536L63.1619 71.512C62.8899 71.512 62.7539 71.432 62.7539 71.272Z" fill="black"/>
<path d="M77.2238 78.856C77.2238 78.776 77.2398 78.712 77.2718 78.664C77.3198 78.616 77.3998 78.568 77.5118 78.52C77.6398 78.456 77.7678 78.408 77.8958 78.376C78.0238 78.328 78.2078 78.264 78.4478 78.184C78.7038 78.088 78.9438 77.992 79.1678 77.896C79.3438 77.816 79.5038 77.744 79.6478 77.68C79.8078 77.616 79.9118 77.576 79.9598 77.56C80.0078 77.528 80.0638 77.504 80.1278 77.488C80.1918 77.472 80.2718 77.464 80.3678 77.464C80.6078 77.464 80.7278 77.616 80.7278 77.92C80.7278 78 80.7038 78.176 80.6558 78.448C80.6078 78.72 80.5838 78.928 80.5838 79.072V85.648C80.5838 86.128 80.6558 86.504 80.7998 86.776C80.9598 87.048 81.1198 87.216 81.2798 87.28C81.4558 87.344 81.6718 87.384 81.9278 87.4C82.1198 87.416 82.2478 87.432 82.3118 87.448C82.3758 87.448 82.4478 87.472 82.5278 87.52C82.6078 87.568 82.6478 87.648 82.6478 87.76C82.6478 88.032 82.5118 88.168 82.2398 88.168C82.2078 88.168 82.1518 88.16 82.0718 88.144C81.9918 88.144 81.9278 88.144 81.8798 88.144C81.5278 88.144 81.2318 88.136 80.9918 88.12C80.7518 88.104 80.4798 88.096 80.1758 88.096C79.7918 88.096 79.4318 88.104 79.0958 88.12C78.7598 88.136 78.5518 88.144 78.4718 88.144C77.8318 88.144 77.5118 88.04 77.5118 87.832C77.5118 87.608 77.6318 87.456 77.8718 87.376C77.8878 87.376 77.9198 87.368 77.9678 87.352C78.3358 87.224 78.5598 87.064 78.6398 86.872C78.7838 86.552 78.8558 85.28 78.8558 83.056V80.944C78.8558 80.48 78.7998 80.112 78.6878 79.84C78.5758 79.568 78.4718 79.4 78.3758 79.336C78.2798 79.272 78.1118 79.224 77.8718 79.192C77.6478 79.144 77.5118 79.112 77.4638 79.096C77.3038 79.032 77.2238 78.952 77.2238 78.856ZM78.5918 73.84C78.5918 73.648 78.7278 73.384 78.9998 73.048C79.2878 72.696 79.5518 72.52 79.7918 72.52C80.0478 72.52 80.2958 72.688 80.5358 73.024C80.7758 73.344 80.8958 73.632 80.8958 73.888C80.8958 74.144 80.7438 74.432 80.4398 74.752C80.1358 75.056 79.9118 75.208 79.7678 75.208C79.4478 75.208 79.1678 75.04 78.9278 74.704C78.7038 74.368 78.5918 74.08 78.5918 73.84Z" fill="black"/>
<path d="M83.711 78.784C83.711 78.688 83.735 78.608 83.783 78.544C83.847 78.464 83.927 78.392 84.023 78.328C84.119 78.264 84.255 78.16 84.431 78.016C84.623 77.856 84.807 77.68 84.983 77.488C85.223 77.232 85.471 76.928 85.727 76.576C85.999 76.208 86.207 75.944 86.351 75.784C86.511 75.608 86.663 75.52 86.807 75.52C86.983 75.52 87.071 75.704 87.071 76.072C87.071 76.216 87.055 76.44 87.023 76.744C86.991 77.048 86.975 77.28 86.975 77.44C86.975 77.664 87.015 77.8 87.095 77.848C87.191 77.896 87.479 77.92 87.959 77.92H88.799C89.151 77.92 89.447 77.904 89.687 77.872C89.943 77.84 90.119 77.8 90.215 77.752C90.311 77.704 90.391 77.664 90.455 77.632C90.535 77.6 90.599 77.584 90.647 77.584C90.807 77.584 90.887 77.672 90.887 77.848C90.887 77.976 90.783 78.232 90.575 78.616C90.367 78.984 90.215 79.168 90.119 79.168C89.879 79.168 89.647 79.168 89.423 79.168C89.199 79.152 89.007 79.144 88.847 79.144C88.687 79.128 88.535 79.112 88.391 79.096C88.247 79.08 88.127 79.072 88.031 79.072C87.935 79.056 87.847 79.048 87.767 79.048C87.703 79.032 87.655 79.024 87.623 79.024L87.575 79C87.271 79 87.071 79.048 86.975 79.144C86.895 79.24 86.855 79.456 86.855 79.792C86.855 79.968 86.839 80.64 86.807 81.808C86.775 82.96 86.759 83.776 86.759 84.256C86.759 85.296 86.887 86.024 87.143 86.44C87.415 86.84 87.975 87.04 88.823 87.04C89.159 87.04 89.527 86.968 89.927 86.824C90.343 86.664 90.567 86.584 90.599 86.584C90.759 86.584 90.839 86.68 90.839 86.872C90.839 87.096 90.559 87.384 89.999 87.736C89.455 88.072 88.863 88.24 88.223 88.24C86.063 88.24 84.983 87.304 84.983 85.432V85.072C84.983 84.448 84.991 83.688 85.007 82.792C85.023 81.896 85.039 81.128 85.055 80.488C85.071 79.832 85.079 79.496 85.079 79.48C85.079 79.32 85.047 79.216 84.983 79.168C84.919 79.12 84.783 79.096 84.575 79.096C84.511 79.096 84.423 79.104 84.311 79.12C84.215 79.12 84.151 79.12 84.119 79.12C83.847 79.12 83.711 79.008 83.711 78.784Z" fill="black"/>
<path d="M45.9453 6.182V29.5L40.5369 26.4632C30.9342 21.0404 24.974 10.954 24.974 0H21.0005V26.6802C21.0005 35.3566 26.0777 43.3824 34.1351 47.1783L46.0557 52.818V29.5L51.464 32.5368C61.0667 37.9596 67.027 48.046 67.027 59H71.0005V32.3198C71.0005 23.6434 65.9232 15.6176 57.8658 11.8217L45.9453 6.182Z" fill="url(#paint0_radial_182_1730)"/>
<defs>
<radialGradient id="paint0_radial_182_1730" cx="0" cy="0" r="1" gradientUnits="userSpaceOnUse" gradientTransform="translate(46 29.5) rotate(-48.5763) scale(34.0074 28.8198)">
<stop offset="0.334" stop-color="#1181A3" stop-opacity="0.75"/>
<stop offset="1" stop-color="#07242D"/>
</radialGradient>
</defs>
</svg>
