<svg width="100" height="100" viewBox="0 0 100 100" fill="none" xmlns="http://www.w3.org/2000/svg">
<path d="M71.3051 28.7987L58.2926 13.0742L54.7275 7.24384L57.5796 0L40.2891 14.4877L53.3015 30.0354L56.8666 35.8658L54.0145 43.1097L71.3051 28.7987Z" fill="url(#paint0_angular_183_1674)"/>
<path d="M46.1698 21.7316L25.849 22.085L19.0753 21.2016L15.332 14.4878L15.8668 36.926L36.1876 36.5727L42.9613 37.4561L46.7045 44.1699L46.1698 21.7316Z" fill="url(#paint1_angular_183_1674)"/>
<path d="M24.9554 36.9258L12.656 53.0036L7.84313 57.9506L0 56.7138L18.0036 70.1414L30.303 54.0636L35.1158 49.2933L42.959 50.5301L24.9554 36.9258Z" fill="url(#paint2_angular_183_1674)"/>
<path d="M23.7056 62.8979L28.5185 82.5093L29.4097 89.2231L23.5273 94.5235L45.2742 88.8698L40.2832 69.2584L39.3919 62.5446L45.2742 57.4209L23.7056 62.8979Z" fill="url(#paint3_angular_183_1674)"/>
<path d="M43.3164 80.0354L61.6765 88.516L67.5588 92.2262L68.0936 100L77.1845 79.5053L58.6462 71.0247L52.7639 67.4912L52.2291 59.7173L43.3164 80.0354Z" fill="url(#paint4_angular_183_1674)"/>
<path d="M68.9857 75.4422L87.1675 66.4316L93.5846 64.1348L100.002 68.5517L89.663 48.7637L71.4813 57.7743L64.8859 60.0711L58.4688 55.6542L68.9857 75.4422Z" fill="url(#paint5_angular_183_1674)"/>
<path d="M81.4627 52.6509L85.5626 32.8628L87.8799 26.3257L95.3665 24.2056L73.2631 19.7886L69.1633 39.5766L66.846 46.1138L59.3594 48.2339L81.4627 52.6509Z" fill="url(#paint6_angular_183_1674)"/>
<defs>
<radialGradient id="paint0_angular_183_1674" cx="0" cy="0" r="1" gradientUnits="userSpaceOnUse" gradientTransform="translate(55.7971 21.5548) rotate(90) scale(21.5548 15.508)">
<stop offset="0.707275" stop-color="#194CB3"/>
<stop offset="1" stop-color="#212224"/>
</radialGradient>
<radialGradient id="paint1_angular_183_1674" cx="0" cy="0" r="1" gradientUnits="userSpaceOnUse" gradientTransform="translate(31.0183 29.3288) rotate(90) scale(14.841 15.6863)">
<stop offset="0.707275" stop-color="#194CB3"/>
<stop offset="1" stop-color="#212224"/>
</radialGradient>
<radialGradient id="paint2_angular_183_1674" cx="0" cy="0" r="1" gradientUnits="userSpaceOnUse" gradientTransform="translate(21.4795 53.5336) rotate(90) scale(16.6078 21.4795)">
<stop offset="0.707275" stop-color="#194CB3"/>
<stop offset="1" stop-color="#212224"/>
</radialGradient>
<radialGradient id="paint3_angular_183_1674" cx="0" cy="0" r="1" gradientUnits="userSpaceOnUse" gradientTransform="translate(34.4008 75.9722) rotate(90) scale(18.5513 10.8735)">
<stop offset="0.707275" stop-color="#194CB3"/>
<stop offset="1" stop-color="#212224"/>
</radialGradient>
<radialGradient id="paint4_angular_183_1674" cx="0" cy="0" r="1" gradientUnits="userSpaceOnUse" gradientTransform="translate(60.2505 79.8587) rotate(90) scale(20.1414 16.934)">
<stop offset="0.707275" stop-color="#194CB3"/>
<stop offset="1" stop-color="#212224"/>
</radialGradient>
<radialGradient id="paint5_angular_183_1674" cx="0" cy="0" r="1" gradientUnits="userSpaceOnUse" gradientTransform="translate(79.2353 62.1029) rotate(90) scale(13.3393 20.7665)">
<stop offset="0.707275" stop-color="#194CB3"/>
<stop offset="1" stop-color="#212224"/>
</radialGradient>
<radialGradient id="paint6_angular_183_1674" cx="0" cy="0" r="1" gradientUnits="userSpaceOnUse" gradientTransform="translate(77.3629 36.2197) rotate(90) scale(16.4312 18.0036)">
<stop offset="0.707275" stop-color="#194CB3"/>
<stop offset="1" stop-color="#212224"/>
</radialGradient>
</defs>
</svg>
